<svg id="visual" viewBox="0 0 960 540" width="960" height="540" xmlns="http://www.w3.org/2000/svg" xmlns:xlink="http://www.w3.org/1999/xlink" version="1.1"><rect x="0" y="0" width="960" height="540" fill="#1f1f1e"></rect><path d="M0 224L14.5 220.5C29 217 58 210 87.2 198.3C116.3 186.7 145.7 170.3 174.8 156.8C204 143.3 233 132.7 262 122.7C291 112.7 320 103.3 349 104.3C378 105.3 407 116.7 436.2 129.2C465.3 141.7 494.7 155.3 523.8 176C553 196.7 582 224.3 611 227.3C640 230.3 669 208.7 698 188C727 167.3 756 147.7 785.2 162.2C814.3 176.7 843.7 225.3 872.8 242C902 258.7 931 243.3 945.5 235.7L960 228L960 0L945.5 0C931 0 902 0 872.8 0C843.7 0 814.3 0 785.2 0C756 0 727 0 698 0C669 0 640 0 611 0C582 0 553 0 523.8 0C494.7 0 465.3 0 436.2 0C407 0 378 0 349 0C320 0 291 0 262 0C233 0 204 0 174.8 0C145.7 0 116.3 0 87.2 0C58 0 29 0 14.5 0L0 0Z" fill="#0066ff" stroke-linecap="round" stroke-linejoin="miter"></path></svg>